<?xml version="1.0" encoding="UTF-8"?>
<!DOCTYPE svg PUBLIC "-//W3C//DTD SVG 1.1//EN" "http://www.w3.org/Graphics/SVG/1.1/DTD/svg11.dtd">
<svg version="1.1" xmlns="http://www.w3.org/2000/svg" xmlns:xlink="http://www.w3.org/1999/xlink" x="0" y="0" width="834" height="1112" viewBox="0, 0, 834, 1112">
  <g id="Background">
    <rect x="0" y="0" width="834" height="1112" fill="#FFFFFF" fill-opacity="0"/>
  </g>
  <g id="Layer_1">
    <g>
      <path d="M411.697,136.743 C419.587,141.357 416.335,139.455 421.453,142.449 C439.111,152.85 456.824,163.306 473.207,175.243 C466.95,182.428 456.601,183.999 447.034,184.845 C425.308,184.847 407.678,169.449 407.736,150.292 C408.809,140.963 407.507,145.483 411.697,136.743 z" fill="#000000"/>
      <path d="M447.033,115.736 C468.642,115.738 486.332,131.241 486.332,150.292 C485.222,159.943 486.563,155.12 481.974,164.685 C465.529,152.529 447.448,142.161 429.682,131.59 C424.627,128.632 427.812,130.495 420.126,126.001 C426.548,118.466 437.044,116.625 447.033,115.736 z" fill="#FF0000"/>
      <path d="M500.5,271.039 L500.341,520.419 C500.342,531.12 490.428,539.837 478.258,539.836 C466.09,539.837 456.295,531.12 456.294,520.419 L456.294,357.669 L437.773,357.669 L437.773,520.419 C437.774,531.12 427.86,539.837 415.69,539.836 C403.521,539.837 393.608,531.12 393.607,520.419 L393.713,355.398 C430.045,328.005 465.365,299.605 500.5,271.039 z" fill="#000000"/>
      <path d="M548.898,231.563 L549.553,237.564 L549.553,343.263 C549.672,364.143 518.804,364.143 518.803,343.263 L518.803,256.158 C529.712,247.289 521.71,253.801 542.769,236.583 C545.756,234.138 545.756,234.138 548.74,231.693 L548.898,231.563 z" fill="#000000"/>
      <path d="M394.32,192.048 L498.739,192.205 C518.125,192.864 536.39,201.602 543.7,217.994 L538.626,222.144 C535.642,224.589 535.642,224.589 532.656,227.032 L516.966,239.861 L500.52,239.861 L500.511,253.257 C465.573,282.152 429.738,310.168 393.723,338.014 L393.786,239.861 L375.087,239.861 L375.087,343.263 C375.087,363.882 344.1,363.882 344.099,343.263 L344.099,236.938 C344.1,212.145 366.48,192.049 394.32,192.048 z" fill="#FF0000"/>
    </g>
  </g>
</svg>
